<svg xmlns="http://www.w3.org/2000/svg" viewBox="0 0 293.25 222.85"><defs><style>.cls-1{fill:#f7931e;}.cls-2{fill:none;}</style></defs><g id="Layer_2" data-name="Layer 2"><g id="Layer_1-2" data-name="Layer 1"><path class="cls-1" d="M80.66,24.59H76.35a2.53,2.53,0,0,0-2.53,2.53V78a2.53,2.53,0,0,0,2.53,2.53H91.42A2.53,2.53,0,0,0,94,78V47.25a2.54,2.54,0,0,1,2.53-2.54h22.16a2.54,2.54,0,0,1,2.53,2.54V200.19a2.53,2.53,0,0,1-2.53,2.53H96.48A2.53,2.53,0,0,1,94,200.19V151.43a2.54,2.54,0,0,0-2.53-2.54H31.63a2.54,2.54,0,0,0-2.54,2.54v68.89a2.54,2.54,0,0,0,2.54,2.53H138.77a2.53,2.53,0,0,0,2.53-2.53V27.12a2.53,2.53,0,0,0-2.53-2.53ZM71.29,202.72H51.76a2.54,2.54,0,0,1-2.54-2.53V171.56A2.54,2.54,0,0,1,51.76,169H71.29a2.54,2.54,0,0,1,2.53,2.54v28.63A2.53,2.53,0,0,1,71.29,202.72Z"/><rect y="175.8" width="20.14" height="20.14" rx="2.53"/><rect class="cls-1" x="273.12" y="175.8" width="20.14" height="20.14" rx="2.53"/><path d="M212.59,24.59h4.31a2.53,2.53,0,0,1,2.53,2.53V78a2.53,2.53,0,0,1-2.53,2.53H201.84A2.54,2.54,0,0,1,199.3,78V47.25a2.54,2.54,0,0,0-2.53-2.54H174.62a2.54,2.54,0,0,0-2.54,2.54V200.19a2.54,2.54,0,0,0,2.54,2.53h22.15a2.53,2.53,0,0,0,2.53-2.53V151.43a2.54,2.54,0,0,1,2.54-2.54h59.79a2.54,2.54,0,0,1,2.53,2.54v68.89a2.53,2.53,0,0,1-2.53,2.53H154.49a2.53,2.53,0,0,1-2.53-2.53V27.12a2.53,2.53,0,0,1,2.53-2.53ZM222,202.72H241.5a2.53,2.53,0,0,0,2.53-2.53V171.56A2.54,2.54,0,0,0,241.5,169H222a2.54,2.54,0,0,0-2.54,2.54v28.63A2.54,2.54,0,0,0,222,202.72Z"/><rect x="121.16" width="20.14" height="20.14" rx="2.53"/><rect class="cls-1" x="151.96" width="20.14" height="20.14" rx="2.53"/><line class="cls-2" x1="141.3" y1="24.59" x2="151.96" y2="24.59"/></g></g></svg>